<svg width="19" height="27" viewBox="0 0 19 27" fill="none" xmlns="http://www.w3.org/2000/svg">
<path opacity="0.3" fill-rule="evenodd" clip-rule="evenodd" d="M9.33333 18.6667C14.488 18.6667 18.6667 14.488 18.6667 9.33333C18.6667 4.17868 14.488 0 9.33333 0C4.17867 0 0 4.17868 0 9.33333C0 14.488 4.17867 18.6667 9.33333 18.6667Z" fill="#0D65D9"/>
<path opacity="0.3" fill-rule="evenodd" clip-rule="evenodd" d="M2.96094 9.3335L7.66242 21.423L9.30502 20.7842L10.9367 21.4288L15.7151 9.3335H2.96094ZM6.37207 11.667H12.2846L9.30506 19.209L6.37207 11.667Z" fill="#008060"/>
<path d="M7 24.5H11.6667V24.8333C11.6667 25.9379 10.7712 26.8333 9.66667 26.8333H9C7.89543 26.8333 7 25.9379 7 24.8333V24.5Z" fill="#A5BFE2"/>
<path fill-rule="evenodd" clip-rule="evenodd" d="M4.66699 18.6667C4.66699 18.0223 5.18933 17.5 5.83366 17.5H12.8337C13.478 17.5 14.0003 18.0223 14.0003 18.6667C14.0003 19.311 13.478 19.8333 12.8337 19.8333H5.83366C5.18933 19.8333 4.66699 19.311 4.66699 18.6667ZM4.66699 21.0002C4.66699 20.3558 5.18933 19.8335 5.83366 19.8335H12.8337C13.478 19.8335 14.0003 20.3558 14.0003 21.0002C14.0003 21.638 13.4885 22.1563 12.8531 22.1667C13.4885 22.1771 14.0003 22.6953 14.0003 23.3332C14.0003 23.9775 13.478 24.4998 12.8337 24.4998H5.83366C5.18933 24.4998 4.66699 23.9775 4.66699 23.3332C4.66699 22.6954 5.17874 22.1772 5.81401 22.1667C5.17874 22.1562 4.66699 21.6379 4.66699 21.0002Z" fill="#0D65D9"/>
</svg>
