<svg width="45" height="31" viewBox="0 0 45 31" fill="none" xmlns="http://www.w3.org/2000/svg">
<g opacity="0.8">
<path d="M42.0714 31H2.21429C0.885714 31 0 30.1143 0 28.7857V2.21429C0 0.885714 0.885714 0 2.21429 0H42.0714C43.4 0 44.2857 0.885714 44.2857 2.21429V28.7857C44.2857 30.1143 43.4 31 42.0714 31ZM26.5714 19.9286C26.5714 18.6 25.6857 17.7143 24.3571 17.7143H6.64286C5.31429 17.7143 4.42857 18.6 4.42857 19.9286C4.42857 21.2571 5.31429 22.1429 6.64286 22.1429H24.3571C25.6857 22.1429 26.5714 21.2571 26.5714 19.9286ZM31 23.25C31 25.0214 32.55 26.5714 34.3214 26.5714H36.5357C38.3071 26.5714 39.8571 25.0214 39.8571 23.25C39.8571 21.4786 38.3071 19.9286 36.5357 19.9286H34.3214C32.55 19.9286 31 21.4786 31 23.25Z" fill="#0D65D9"/>
<path d="M44.2857 3.32153H0V12.1787H44.2857V3.32153Z" fill="#FFEE19"/>
</g>
</svg>
