<svg width="56" height="47" viewBox="0 0 56 47" fill="none" xmlns="http://www.w3.org/2000/svg">
<g opacity="0.7">
<path d="M41.7441 47H13.9151V43.8668H41.7441V47Z" fill="#0D65D9"/>
<path d="M34.508 38.6443H21.1504V43.8668H34.508V38.6443Z" fill="#FFEE19"/>
<path d="M50.0918 38.6444H5.5662C2.49221 38.6444 0 36.3066 0 33.4226V32.378H55.658V33.4226C55.658 36.3066 53.1658 38.6444 50.0918 38.6444Z" fill="#0D65D9"/>
<path d="M55.658 32.378H0V5.22244C0 2.33842 2.49221 0 5.5662 0H50.0918C53.1658 0 55.658 2.33842 55.658 5.22244V32.378Z" fill="#0D65D9"/>
<path d="M40.074 16.1888C40.074 22.5339 34.5916 27.6777 27.829 27.6777C21.0663 27.6777 15.584 22.5339 15.584 16.1888C15.584 9.84373 21.0663 4.69995 27.829 4.69995C34.5916 4.69995 40.074 9.84373 40.074 16.1888Z" fill="#FFEE19"/>
<path d="M24.7498 22.7254C24.3223 22.7254 23.8949 22.5725 23.5687 22.2667L19.6909 18.6281C19.0393 18.0171 19.0393 17.0247 19.6909 16.413C20.3438 15.8008 21.4 15.8008 22.0529 16.413L24.7498 18.9434L33.0491 11.156C33.702 10.5437 34.7575 10.5437 35.4104 11.156C36.062 11.7677 36.062 12.7594 35.4104 13.3711L25.9301 22.2667C25.604 22.5725 25.1765 22.7254 24.7498 22.7254Z" fill="#EBF7FD"/>
</g>
</svg>
