<svg width="49" height="47" viewBox="0 0 49 47" fill="none" xmlns="http://www.w3.org/2000/svg">
<g opacity="0.8">
<path d="M15.3822 14.6454C15.3841 14.5357 15.3873 14.4253 15.3918 14.315C15.6928 6.841 22.4244 1.46227 29.2178 0.26381C38.5389 -1.38113 50.9177 4.77319 48.7497 15.7424C47.5889 21.6154 43.422 26.9393 37.5216 28.5702C35.8951 29.0199 34.0569 29.3101 32.3661 29.3101C28.83 29.3101 26.0395 27.4732 22.7873 29.8197C21.8363 30.5054 20.8522 32.9144 19.3437 32.3831C18.2409 31.9953 18.01 29.7629 17.9348 28.8317C17.5508 24.0532 15.2974 19.4564 15.3822 14.6454Z" fill="#FFEE19"/>
<path d="M42.345 14.7181C42.345 14.861 42.331 15.002 42.3029 15.1423C42.2755 15.282 42.234 15.4178 42.1792 15.5498C42.125 15.6812 42.0573 15.8069 41.9783 15.9255C41.8992 16.0441 41.8086 16.1539 41.7078 16.2546C41.6064 16.3554 41.4967 16.446 41.3781 16.5251C41.2594 16.6042 41.1338 16.6711 41.0018 16.726C40.8697 16.7808 40.7339 16.8216 40.5936 16.8497C40.4532 16.8771 40.3123 16.8912 40.1694 16.8912C40.0265 16.8912 39.8849 16.8771 39.7446 16.8497C39.6043 16.8216 39.4684 16.7808 39.3364 16.726C39.2044 16.6711 39.0794 16.6042 38.9601 16.5251C38.8415 16.446 38.7318 16.3554 38.631 16.2546C38.5296 16.1539 38.4396 16.0441 38.3599 15.9255C38.2808 15.8069 38.2138 15.6812 38.159 15.5498C38.1041 15.4178 38.0633 15.282 38.0353 15.1423C38.0072 15.002 37.9932 14.861 37.9932 14.7181C37.9932 14.5752 38.0072 14.4337 38.0353 14.294C38.0633 14.1543 38.1041 14.0178 38.159 13.8864C38.2138 13.7544 38.2808 13.6294 38.3599 13.5107C38.4396 13.3921 38.5296 13.2824 38.631 13.181C38.7318 13.0802 38.8415 12.9903 38.9601 12.9112C39.0794 12.8315 39.2044 12.7645 39.3364 12.7103C39.4684 12.6554 39.6043 12.614 39.7446 12.5865C39.8849 12.5585 40.0265 12.5444 40.1694 12.5444C40.3123 12.5444 40.4532 12.5585 40.5936 12.5865C40.7339 12.614 40.8697 12.6554 41.0018 12.7103C41.1338 12.7645 41.2594 12.8315 41.3781 12.9112C41.4967 12.9903 41.6064 13.0802 41.7078 13.181C41.8086 13.2824 41.8992 13.3921 41.9783 13.5107C42.0573 13.6294 42.125 13.7544 42.1792 13.8864C42.234 14.0178 42.2755 14.1543 42.3029 14.294C42.331 14.4337 42.345 14.5752 42.345 14.7181Z" fill="white"/>
<path d="M34.6601 14.7181C34.6601 14.861 34.6461 15.002 34.618 15.1423C34.5899 15.282 34.5491 15.4178 34.4943 15.5498C34.4394 15.6819 34.3724 15.8069 34.2933 15.9255C34.2136 16.0441 34.1237 16.1539 34.0223 16.2546C33.9215 16.356 33.8118 16.446 33.6925 16.5251C33.5739 16.6048 33.4482 16.6718 33.3168 16.726C33.1848 16.7808 33.0483 16.8216 32.9086 16.8497C32.7683 16.8778 32.6267 16.8918 32.4839 16.8918C32.341 16.8918 32.1994 16.8778 32.0591 16.8497C31.9194 16.8216 31.7829 16.7808 31.6509 16.726C31.5188 16.6718 31.3938 16.6048 31.2752 16.5251C31.1559 16.446 31.0462 16.356 30.9454 16.2546C30.844 16.1539 30.7541 16.0441 30.6744 15.9255C30.5953 15.8069 30.5283 15.6819 30.4735 15.5498C30.4186 15.4178 30.3778 15.282 30.3497 15.1423C30.3216 15.002 30.3076 14.861 30.3076 14.7181C30.3076 14.5752 30.3216 14.4337 30.3497 14.294C30.3778 14.1537 30.4186 14.0178 30.4735 13.8864C30.5283 13.7544 30.5953 13.6294 30.6744 13.5107C30.7541 13.3915 30.844 13.2818 30.9454 13.181C31.0462 13.0802 31.1559 12.9903 31.2752 12.9105C31.3938 12.8315 31.5188 12.7645 31.6509 12.7096C31.7829 12.6554 31.9194 12.614 32.0591 12.5859C32.1994 12.5585 32.341 12.5444 32.4839 12.5444C32.6267 12.5444 32.7683 12.5585 32.9086 12.5859C33.0483 12.614 33.1848 12.6554 33.3168 12.7096C33.4482 12.7645 33.5739 12.8315 33.6925 12.9105C33.8118 12.9903 33.9215 13.0802 34.0223 13.181C34.1237 13.2818 34.2136 13.3915 34.2933 13.5101C34.3724 13.6294 34.4394 13.7544 34.4943 13.8864C34.5491 14.0178 34.5899 14.1537 34.618 14.294C34.6461 14.4337 34.6601 14.5752 34.6601 14.7181Z" fill="white"/>
<path d="M27.3811 14.7181C27.3811 14.8609 27.3671 15.0019 27.339 15.1422C27.3116 15.2819 27.2702 15.4177 27.2153 15.5498C27.1611 15.6812 27.0941 15.8068 27.0144 15.9255C26.9353 16.0441 26.8447 16.1538 26.744 16.2546C26.6425 16.3553 26.5328 16.4459 26.4142 16.525C26.2956 16.6041 26.1699 16.6711 26.0379 16.7259C25.9059 16.7808 25.77 16.8216 25.6297 16.8497C25.49 16.8771 25.3484 16.8911 25.2055 16.8911C25.0627 16.8911 24.9211 16.8771 24.7807 16.8497C24.6411 16.8216 24.5046 16.7808 24.3725 16.7259C24.2405 16.6711 24.1155 16.6041 23.9969 16.525C23.8776 16.4459 23.7679 16.3553 23.6671 16.2546C23.5657 16.1538 23.4758 16.0441 23.396 15.9255C23.317 15.8068 23.25 15.6812 23.1951 15.5498C23.1403 15.4177 23.0995 15.2819 23.0714 15.1422C23.0433 15.0019 23.0293 14.8609 23.0293 14.7181C23.0293 14.5752 23.0433 14.4336 23.0714 14.2939C23.0995 14.1542 23.1403 14.0177 23.1951 13.8863C23.25 13.7543 23.317 13.6293 23.396 13.5107C23.4758 13.392 23.5657 13.2823 23.6671 13.1809C23.7679 13.0801 23.8776 12.9902 23.9969 12.9111C24.1155 12.8314 24.2405 12.7644 24.3725 12.7102C24.5046 12.6554 24.6411 12.6139 24.7807 12.5865C24.9211 12.5584 25.0627 12.5444 25.2055 12.5444C25.3484 12.5444 25.49 12.5584 25.6297 12.5865C25.77 12.6139 25.9059 12.6554 26.0379 12.7102C26.1699 12.7644 26.2956 12.8314 26.4142 12.9111C26.5328 12.9902 26.6425 13.0801 26.744 13.1809C26.8447 13.2823 26.9353 13.392 27.0144 13.5107C27.0941 13.6293 27.1611 13.7543 27.2153 13.8863C27.2702 14.0177 27.3116 14.1542 27.339 14.2939C27.3671 14.4336 27.3811 14.5752 27.3811 14.7181Z" fill="white"/>
<path d="M33.6177 28.9758C33.6157 28.8655 33.6126 28.7552 33.6081 28.6455C33.307 21.1715 26.5755 15.7928 19.7821 14.5937C10.461 12.9494 -1.9178 19.103 0.250149 30.0729C1.41098 35.9459 5.57785 41.2698 11.4777 42.9007C13.1048 43.3504 14.943 43.6399 16.6338 43.6399C20.1699 43.6399 22.9597 41.8037 26.2126 44.1496C27.1636 44.8359 28.1477 47.2443 29.6562 46.7136C30.759 46.3258 30.9898 44.0928 31.0645 43.1616C31.4491 38.383 33.7025 33.7869 33.6177 28.9758Z" fill="#0D65D9"/>
<path d="M11.0071 29.048C11.0065 29.1909 10.9931 29.3325 10.965 29.4721C10.937 29.6118 10.8961 29.7483 10.8413 29.8797C10.7864 30.0117 10.7195 30.1367 10.6404 30.2554C10.5606 30.374 10.4707 30.4837 10.3693 30.5851C10.2685 30.6859 10.1588 30.7758 10.0395 30.8549C9.92091 30.9347 9.7959 31.0016 9.66387 31.0558C9.53184 31.1107 9.39534 31.1522 9.25566 31.1796C9.11534 31.2076 8.97375 31.2217 8.83087 31.2217C8.688 31.2217 8.54641 31.2076 8.40673 31.1796C8.2664 31.1522 8.13055 31.1107 7.99852 31.0558C7.86649 31.0016 7.74084 30.9347 7.62221 30.8549C7.50357 30.7758 7.39323 30.6859 7.29245 30.5851C7.19168 30.4837 7.10111 30.374 7.02202 30.2554C6.94229 30.1367 6.87532 30.0117 6.82111 29.8797C6.76625 29.7477 6.7248 29.6118 6.69673 29.4721C6.66931 29.3325 6.65527 29.1909 6.65527 29.048C6.65527 28.9051 6.66931 28.7642 6.69673 28.6238C6.7248 28.4842 6.76625 28.3483 6.82111 28.2163C6.87532 28.0849 6.94229 27.9592 7.02202 27.8406C7.10111 27.722 7.19168 27.6123 7.29245 27.5115C7.39323 27.4107 7.50357 27.3201 7.62221 27.241C7.74084 27.162 7.86649 27.095 7.99852 27.0401C8.13055 26.9853 8.2664 26.9445 8.40673 26.9164C8.54641 26.889 8.688 26.8749 8.83087 26.8749C8.97375 26.8749 9.11534 26.889 9.25566 26.9164C9.39534 26.9445 9.53184 26.9853 9.66387 27.0401C9.7959 27.095 9.92091 27.162 10.0395 27.241C10.1588 27.3201 10.2685 27.4107 10.3693 27.5115C10.4707 27.6123 10.5606 27.722 10.6404 27.8406C10.7195 27.9592 10.7864 28.0849 10.8413 28.2163C10.8961 28.3483 10.937 28.4842 10.965 28.6238C10.9931 28.7642 11.0065 28.9051 11.0071 29.048Z" fill="white"/>
<path d="M18.6927 29.048C18.6927 29.1908 18.6793 29.3324 18.6512 29.4721C18.6231 29.6124 18.5823 29.7483 18.5275 29.8797C18.4726 30.0117 18.4056 30.1367 18.3266 30.2553C18.2468 30.3746 18.1569 30.4843 18.0555 30.5851C17.9547 30.6859 17.845 30.7758 17.7257 30.8555C17.6071 30.9346 17.4814 31.0016 17.3494 31.0564C17.2174 31.1107 17.0815 31.1521 16.9412 31.1802C16.8015 31.2076 16.6599 31.2216 16.5171 31.2216C16.3742 31.2216 16.2326 31.2076 16.0923 31.1802C15.9526 31.1521 15.8161 31.1107 15.6841 31.0564C15.552 31.0016 15.427 30.9346 15.3084 30.8555C15.1891 30.7758 15.0794 30.6859 14.9786 30.5851C14.8772 30.4843 14.7873 30.3746 14.7076 30.2553C14.6285 30.1367 14.5615 30.0117 14.5067 29.8797C14.4518 29.7483 14.411 29.6124 14.3829 29.4721C14.3549 29.3324 14.3408 29.1908 14.3408 29.048C14.3408 28.9051 14.3549 28.7641 14.3829 28.6238C14.411 28.4841 14.4518 28.3483 14.5067 28.2162C14.5615 28.0842 14.6285 27.9592 14.7076 27.8406C14.7873 27.7219 14.8772 27.6122 14.9786 27.5114C15.0794 27.41 15.1891 27.3201 15.3084 27.241C15.427 27.1613 15.552 27.0943 15.6841 27.0401C15.8161 26.9852 15.9526 26.9444 16.0923 26.9164C16.2326 26.8883 16.3742 26.8743 16.5171 26.8743C16.6599 26.8743 16.8015 26.8883 16.9412 26.9164C17.0815 26.9444 17.2174 26.9852 17.3494 27.0401C17.4814 27.0943 17.6071 27.1613 17.7257 27.241C17.845 27.3201 17.9547 27.41 18.0555 27.5114C18.1569 27.6122 18.2468 27.7219 18.3266 27.8406C18.4056 27.9592 18.4726 28.0842 18.5275 28.2162C18.5823 28.3483 18.6231 28.4841 18.6512 28.6238C18.6793 28.7641 18.6927 28.9051 18.6927 29.048Z" fill="white"/>
<path d="M25.9703 29.048C25.9703 29.1909 25.9569 29.3325 25.9289 29.4722C25.9008 29.6119 25.8594 29.7484 25.8051 29.8798C25.7503 30.0118 25.6833 30.1368 25.6042 30.2554C25.5245 30.3741 25.4346 30.4838 25.3332 30.5852C25.2324 30.686 25.1227 30.7759 25.0034 30.855C24.8848 30.9347 24.7598 31.0017 24.6277 31.0559C24.4957 31.1108 24.3592 31.1522 24.2195 31.1796C24.0792 31.2077 23.9376 31.2217 23.7947 31.2217C23.6519 31.2217 23.5103 31.2077 23.3706 31.1796C23.2303 31.1522 23.0944 31.1108 22.9624 31.0559C22.8304 31.0017 22.7047 30.9347 22.5861 30.855C22.4674 30.7759 22.3571 30.686 22.2563 30.5852C22.1555 30.4838 22.065 30.3741 21.9859 30.2554C21.9062 30.1368 21.8392 30.0118 21.785 29.8798C21.7301 29.7477 21.6887 29.6119 21.6606 29.4722C21.6332 29.3325 21.6191 29.1909 21.6191 29.048C21.6191 28.9052 21.6332 28.7642 21.6606 28.6239C21.6887 28.4842 21.7301 28.3484 21.785 28.2163C21.8392 28.0849 21.9062 27.9593 21.9859 27.8407C22.065 27.722 22.1555 27.6123 22.2563 27.5115C22.3571 27.4108 22.4674 27.3202 22.5861 27.2411C22.7047 27.162 22.8304 27.095 22.9624 27.0402C23.0944 26.9853 23.2303 26.9445 23.3706 26.9165C23.5103 26.889 23.6519 26.875 23.7947 26.875C23.9376 26.875 24.0792 26.889 24.2195 26.9165C24.3592 26.9445 24.4957 26.9853 24.6277 27.0402C24.7598 27.095 24.8848 27.162 25.0034 27.2411C25.1227 27.3202 25.2324 27.4108 25.3332 27.5115C25.4346 27.6123 25.5245 27.722 25.6042 27.8407C25.6833 27.9593 25.7503 28.0849 25.8051 28.2163C25.8594 28.3484 25.9008 28.4842 25.9289 28.6239C25.9569 28.7642 25.9703 28.9052 25.9703 29.048Z" fill="white"/>
</g>
</svg>
