<svg width="49" height="31" viewBox="0 0 49 31" fill="none" xmlns="http://www.w3.org/2000/svg">
<g opacity="0.8">
<path d="M47.7475 7.64014H21.2516C21.0988 7.64014 20.9543 7.70626 20.8542 7.8233L0.513672 26.6243C0.792213 28.8573 2.4658 30.5332 4.00012 30.5332H30.9104C30.9496 30.5332 30.9929 30.535 31.0362 30.5367C31.0362 30.5367 31.409 30.5367 31.9221 30.4407C32.8268 30.2716 33.6238 29.7385 34.1335 28.9702L47.9886 8.11647C48.1349 7.91926 47.9939 7.64014 47.7475 7.64014Z" fill="#FFEE19"/>
<path d="M47.7463 7.63997V7.17886H21.2503C20.9624 7.17886 20.6897 7.3035 20.5036 7.52177L20.853 7.82313L20.5411 7.48373L0.199961 26.2853C0.0911193 26.3871 0.0366984 26.534 0.0554239 26.6826C0.208154 27.8968 0.735978 28.9589 1.44638 29.7308C1.80275 30.1152 2.20534 30.4277 2.63661 30.6477C3.06847 30.8683 3.53076 30.9942 3.99889 30.9942H30.9092C30.9372 30.9942 30.9712 30.9959 31.0104 30.9983L31.0367 31C31.056 30.9983 31.4528 30.9959 32.0058 30.8947C33.0339 30.7022 33.9386 30.0959 34.5179 29.2264L48.373 8.37261L47.9874 8.1163L48.3596 8.38958C48.459 8.25791 48.5082 8.09406 48.5082 7.94133C48.5082 7.74179 48.4309 7.55571 48.2975 7.4141C48.1659 7.27307 47.9646 7.1771 47.7463 7.17886V8.10167V7.93782L47.6281 8.05076C47.6544 8.08061 47.7071 8.10343 47.7463 8.10167V7.93782L47.6281 8.05076L47.7428 7.94133H47.5848C47.5865 7.98639 47.6018 8.02033 47.6281 8.05076L47.7428 7.94133H47.5848H47.7486L47.617 7.84537C47.5977 7.86819 47.5848 7.90739 47.5848 7.94133H47.7486L47.617 7.84537L47.6053 7.86234L33.749 28.7143C33.3066 29.3791 32.6167 29.8402 31.8361 29.9871C31.5991 30.0321 31.3943 30.0526 31.2497 30.0643C31.1778 30.0696 31.1216 30.0737 31.0841 30.0754H31.0332L31.035 30.2674L31.0332 30.0754L31.035 30.2674L31.0332 30.0754L31.035 30.5366L31.0595 30.0754C31.0104 30.0737 30.9618 30.0719 30.9092 30.0719H3.99889C3.69987 30.0719 3.37803 29.9906 3.0556 29.825C2.57107 29.5804 2.09299 29.1491 1.71672 28.5862C1.33987 28.0232 1.06543 27.3304 0.969461 26.5679L0.512443 26.6241L0.825509 26.9635L21.1649 8.16194L21.2023 8.12391C21.214 8.10928 21.2304 8.10167 21.2497 8.10167H47.7457V7.63997" fill="#FFEE19"/>
<path d="M32.1639 28.9988L46.6656 7.77986C46.6656 7.77986 44.4355 5.40758 46.6656 0.939209L30.2123 23.5537C30.2123 23.5537 26.1688 26.6241 32.1645 28.9988" fill="white"/>
<path d="M32.1636 28.9987L32.5458 29.2585L47.0457 8.04141C47.1698 7.86235 47.1511 7.62126 47.0007 7.46326L46.8667 7.59141L47.0042 7.46501L47.0007 7.46326L46.8667 7.59141L47.0042 7.46501C46.9983 7.4615 46.7806 7.21866 46.5641 6.7552C46.35 6.29233 46.1352 5.6071 46.1352 4.6995C46.1352 3.76147 46.3628 2.57942 47.0773 1.14634C47.1844 0.932163 47.1095 0.670007 46.9047 0.54595C46.7016 0.421894 46.4342 0.474559 46.2932 0.668251L29.8393 23.2822L30.2121 23.5537L29.9336 23.1862C29.9148 23.2014 29.5555 23.4724 29.1851 23.9358C29.0008 24.1676 28.8124 24.4479 28.6661 24.7738C28.521 25.0974 28.418 25.4719 28.418 25.8786C28.418 26.18 28.4759 26.4983 28.6076 26.8125C28.8071 27.2871 29.1682 27.7482 29.717 28.1853C30.2665 28.6219 31.0074 29.0362 31.9945 29.4259C32.1958 29.5067 32.4235 29.437 32.5458 29.2585L32.1642 28.9987L32.3333 28.5692C31.0975 28.0794 30.3338 27.5697 29.8996 27.1063C29.6814 26.8746 29.5444 26.658 29.4578 26.455C29.373 26.2514 29.339 26.0635 29.339 25.8786C29.339 25.6305 29.4034 25.3853 29.5087 25.1501C29.6644 24.8001 29.9148 24.4836 30.1255 24.2612C30.2308 24.1506 30.3245 24.0616 30.3923 24.0037C30.4263 23.975 30.4526 23.9528 30.4696 23.9393L30.4883 23.9241L30.4918 23.9206L30.3268 23.7041L30.4918 23.9224V23.9206L30.3268 23.7041L30.4918 23.9224C30.5258 23.896 30.5597 23.8603 30.586 23.8246L47.0381 1.2107L46.6654 0.939185L46.254 0.734375C45.481 2.27806 45.2118 3.60932 45.2136 4.6995C45.2136 5.78733 45.481 6.62939 45.7554 7.19993C46.0281 7.76989 46.3043 8.0695 46.3289 8.09583L46.6654 7.77984L46.2856 7.52002L31.7839 28.7366L32.1642 28.9987L32.3333 28.5692L32.1642 28.9987" fill="#FFEE19"/>
<path d="M20.854 1.12237L1.21094 23.9733C1.21094 24.8095 1.73233 26.6376 2.187 26.6241L31.909 23.0019C32.0705 22.9978 32.2215 22.9188 32.3169 22.7889L47.9883 1.41788C48.1352 1.22009 47.9942 0.939209 47.7478 0.939209H21.2513C21.0991 0.939209 20.954 1.00709 20.8545 1.12237" fill="#0D65D9"/>
<path d="M20.8537 1.1223L20.5044 0.820938L0.860791 23.6719C0.788815 23.755 0.749023 23.8621 0.749023 23.9732C0.750194 24.2278 0.786474 24.5174 0.846162 24.8264C0.935693 25.2893 1.07672 25.7826 1.25286 26.1893C1.34239 26.3929 1.4366 26.5772 1.56124 26.737C1.62502 26.8166 1.69525 26.8915 1.79238 26.9594C1.88777 27.0255 2.02119 27.0858 2.18152 27.0858H2.19615C2.21488 27.0858 2.22307 27.0858 2.24238 27.0817L31.9638 23.4612L31.9076 23.0019L31.9205 23.463C32.2236 23.4554 32.5074 23.3067 32.6883 23.0621L48.3597 1.6905C48.4592 1.55708 48.5078 1.39324 48.5078 1.24051C48.5078 1.04096 48.4311 0.856633 48.2971 0.713266C48.1654 0.57224 47.9647 0.478027 47.7465 0.478027H21.2499C20.962 0.478027 20.6893 0.604424 20.5032 0.820938L20.8532 1.1223L21.2031 1.42308C21.2142 1.41021 21.2312 1.40084 21.2499 1.40084H47.7465V1.23875L47.6277 1.34993C47.654 1.37978 47.7067 1.4026 47.7465 1.40084V1.23875L47.6277 1.34993L47.7424 1.24051H47.5844C47.5867 1.28556 47.6013 1.3195 47.6277 1.34993L47.7424 1.24051H47.5844H47.7482L47.6166 1.14454C47.5978 1.16736 47.5844 1.20891 47.5844 1.24051H47.7482L47.6166 1.14454L31.9433 22.5162C31.9322 22.5314 31.9152 22.5407 31.8942 22.5407L31.8509 22.5442L2.12944 26.167L2.1862 26.6241L2.17626 26.1629L2.18094 26.3964V26.1629H2.17626L2.18094 26.3964V26.1629V26.4228L2.29153 26.1875C2.27047 26.1764 2.23009 26.1629 2.18094 26.1629V26.4228L2.29153 26.1875L2.226 26.3268L2.3126 26.1986L2.29153 26.1875L2.226 26.3268L2.3126 26.1986L2.27222 26.2589L2.31611 26.2004L2.3126 26.1986L2.27222 26.2589L2.31611 26.2004L2.31202 26.2063L2.3167 26.2004H2.31611L2.31202 26.2063L2.3167 26.2004C2.31319 26.1986 2.28393 26.1688 2.24999 26.1179C2.1903 26.0272 2.11481 25.875 2.04518 25.6942C1.93985 25.425 1.84388 25.0915 1.776 24.7773C1.70812 24.463 1.6695 24.1617 1.67067 23.9732H1.20955L1.5589 24.2728L21.2019 1.42308L20.8526 1.1223" fill="#FFEE19"/>
<path d="M2.27402 26.1504C2.26642 26.1404 2.25939 26.1293 2.2512 26.1182C2.19151 26.0275 2.11603 25.8753 2.04581 25.6945C1.94106 25.4253 1.84451 25.0918 1.77721 24.7775C1.7263 24.5441 1.69178 24.3147 1.67773 24.1356L21.2031 1.42336C21.2143 1.41049 21.2312 1.40112 21.25 1.40112H21.7749C21.3875 4.52652 21.8217 7.7555 23.1553 10.4362C24.5053 13.1531 26.5422 15.5441 29.1767 17.0808C30.8356 18.0487 32.6672 18.6531 34.5538 18.9563L31.9434 22.5164C31.9323 22.5317 31.9153 22.541 31.8942 22.541L31.8509 22.5445L2.27227 26.1504" fill="#0D65D9"/>
<path d="M2.18174 26.6241C1.7294 26.6241 1.21094 24.8072 1.21094 23.9733L20.854 1.12237C20.954 1.00709 21.0986 0.939209 21.2513 0.939209H21.8394C21.8154 1.09369 21.7943 1.24818 21.7756 1.40091H21.2513C21.232 1.40091 21.215 1.41027 21.2039 1.42315L1.67907 24.1354C1.69195 24.3145 1.72647 24.5438 1.77738 24.7773C1.84468 25.0916 1.94123 25.4251 2.04598 25.6943C2.1162 25.8751 2.19168 26.0273 2.25137 26.118C2.25956 26.1291 2.26659 26.1402 2.27419 26.1501L31.8528 22.5443L31.8961 22.5408C31.9166 22.5408 31.9336 22.5314 31.9447 22.5162L34.5552 18.956C34.7284 18.9841 34.8992 19.0105 35.0725 19.0327L32.3175 22.7889C32.2215 22.9188 32.0711 22.9978 31.909 23.0019L2.18759 26.6241H2.18232" fill="#3B6492"/>
<path d="M32.1643 29.0567C32.1175 29.0591 32.0707 29.0643 32.0233 29.0643H3.30253C1.74012 29.0643 0.460938 27.6974 0.460938 26.0296C0.460938 24.3613 1.74012 22.9961 3.30253 22.9961H32.0233C32.0707 22.9961 32.1175 23.0019 32.1643 23.0037C32.1643 23.0037 30.6809 24.0921 30.7014 26.022C30.7201 27.9519 32.1643 29.0567 32.1643 29.0567Z" fill="white"/>
<path d="M32.1639 29.0567L32.1417 28.5956C32.0756 28.5991 32.0364 28.6032 32.0229 28.6032H3.30212C2.65726 28.6032 2.06858 28.3229 1.63146 27.8577C1.19609 27.3925 0.921059 26.747 0.921059 26.0296C0.921059 25.3139 1.19609 24.6679 1.63146 24.2033C2.06858 23.7381 2.65726 23.4578 3.30212 23.4578H32.0229C32.0381 23.4554 32.0756 23.4595 32.1417 23.4648L32.1639 23.0037L31.8912 22.6309C31.8649 22.6514 31.4664 22.9475 31.0585 23.5081C30.8555 23.7907 30.6524 24.1389 30.498 24.5532C30.3417 24.9675 30.2387 25.4474 30.2405 25.984V26.0296V26.0273C30.2498 27.1081 30.6618 27.9595 31.0621 28.5277C31.4647 29.1 31.8596 29.4031 31.886 29.4224L32.1639 29.0567L32.1417 28.5956L32.1639 29.0567L32.4442 28.6898L32.2845 28.8987L32.4466 28.6898H32.4442L32.2845 28.8987L32.4466 28.6898L32.4331 28.6804C32.3617 28.6219 32.0399 28.3434 31.7409 27.8858C31.4418 27.4264 31.1691 26.7997 31.1621 26.0179V26.0144L31.1598 25.984C31.1621 25.5661 31.2405 25.1992 31.3611 24.8751C31.5396 24.3911 31.8163 24.009 32.0457 23.7509C32.1604 23.621 32.2622 23.5251 32.3354 23.4613C32.3711 23.4291 32.3992 23.4069 32.4161 23.3916L32.4349 23.3764L32.439 23.3747L32.3389 23.2389L32.4366 23.3747H32.439L32.3389 23.2389L32.4366 23.3747C32.5946 23.26 32.6625 23.0581 32.6063 22.872C32.5496 22.6836 32.3822 22.5519 32.1885 22.5426C32.1587 22.5408 32.1042 22.535 32.0229 22.5332H3.30212C2.38457 22.5332 1.55246 22.9381 0.95851 23.5707C0.365147 24.205 0 25.0769 0 26.0296C0 26.984 0.365147 27.8536 0.95851 28.4885C1.55246 29.1228 2.38457 29.5254 3.30212 29.5254H32.0229C32.1042 29.5254 32.1604 29.5184 32.1885 29.5161C32.3822 29.5067 32.5478 29.3791 32.6046 29.1925C32.6625 29.0081 32.5987 28.8086 32.4442 28.6898L32.1639 29.0567Z" fill="#FFEE19"/>
<path d="M0.821179 25.3971H25.8337C26.0444 25.3971 26.217 25.2256 26.217 25.0126C26.217 24.8019 26.0444 24.6305 25.8337 24.6305H0.821179C0.609346 24.6305 0.438477 24.8019 0.438477 25.0126C0.438477 25.2256 0.609346 25.3971 0.821179 25.3971Z" fill="#FFEE19"/>
<path d="M0.821179 27.4679H20.7556C20.9663 27.4679 21.1395 27.2964 21.1395 27.0834C21.1395 26.8727 20.9663 26.7013 20.7556 26.7013H0.821179C0.609346 26.7013 0.438477 26.8727 0.438477 27.0834C0.438477 27.2964 0.609346 27.4679 0.821179 27.4679Z" fill="#FFEE19"/>
<path d="M0.500977 10.6456L3.73814 15.1585L6.97473 19.6731L13.4783 10.6661L10.4237 10.6603L10.4389 1.03011L3.56903 1.02075L3.55381 10.6492L0.500977 10.6456Z" fill="white"/>
<path d="M0.501346 10.6454L0.126837 10.9146L3.36459 15.4275L6.60117 19.9426C6.68778 20.0626 6.82646 20.1346 6.9751 20.1346C7.12197 20.1346 7.263 20.0626 7.34961 19.9426L13.8526 10.9351C13.9527 10.7941 13.9673 10.6092 13.8883 10.4553C13.8093 10.3008 13.6537 10.2048 13.4787 10.2025L10.887 10.1989L10.9004 1.03166C10.9004 0.909355 10.853 0.790566 10.7664 0.70396C10.6804 0.619111 10.5616 0.568786 10.4411 0.568786L3.5694 0.558838C3.31543 0.558838 3.10887 0.764233 3.10887 1.02054L3.09541 10.1878L0.501346 10.1837C0.328136 10.182 0.17014 10.2797 0.0905563 10.4342C0.0121434 10.5887 0.0256023 10.773 0.126837 10.9146L0.501346 10.6454L0.500761 11.1065L3.55418 11.1101C3.67473 11.1101 3.79293 11.0632 3.87954 10.9766C3.96615 10.89 4.0153 10.7712 4.0153 10.6507L4.02993 1.48165L9.97878 1.49102L9.96356 10.6583C9.96356 10.9146 10.1707 11.1218 10.4241 11.1218L12.5775 11.1253L9.85238 14.8985L6.97685 18.8823L4.11302 14.8891L0.875271 10.3757L0.501346 10.6454L0.500761 11.1065L0.501346 10.6454Z" fill="#FFEE19"/>
<path d="M25.8902 9.48896L22.6537 4.97378L19.4171 0.460938L12.9141 9.46848L15.9681 9.47199L15.9529 19.1027L22.8228 19.1139L22.838 9.48311L25.8902 9.48896Z" fill="white"/>
<path d="M25.8897 9.48917L26.266 9.21999L19.7911 0.191968C19.7044 0.0714225 19.5652 3.16421e-05 19.4165 3.16421e-05C19.2679 -0.00172391 19.1286 0.0696671 19.0426 0.190212L12.539 9.19717C12.4372 9.33878 12.4243 9.52311 12.5033 9.67759C12.5823 9.83208 12.7403 9.9298 12.9135 9.9298L15.5047 9.93331L15.49 19.1006C15.49 19.3569 15.6966 19.5641 15.9506 19.5641L22.8205 19.5752C22.9428 19.5752 23.061 19.526 23.1476 19.4394C23.2342 19.3552 23.2834 19.2364 23.2834 19.1141L23.298 9.94677L25.8897 9.95028C26.0629 9.95028 26.2209 9.85432 26.2999 9.69983C26.3807 9.54593 26.3654 9.36102 26.266 9.21999L25.8897 9.48917L25.8915 9.02805L22.8375 9.0222C22.5835 9.0222 22.3769 9.22935 22.3769 9.48332L22.3617 18.6506L16.4134 18.6412L16.4281 9.47395C16.4281 9.35165 16.3795 9.23286 16.2929 9.14626C16.208 9.06199 16.0898 9.01108 15.9675 9.01108L13.8141 9.00699L16.5375 5.23614L19.4148 1.24996L22.2792 5.24375L25.5158 9.75835L25.8897 9.48917L25.8915 9.02805L25.8897 9.48917Z" fill="#FFEE19"/>
</g>
</svg>
