<svg width="32" height="20" viewBox="0 0 32 20" fill="none" xmlns="http://www.w3.org/2000/svg">
<path d="M31.9966 14.2177C31.9437 12.7851 31.1491 11.4846 29.8439 10.525C29.2411 10.0821 28.5295 9.7122 27.7317 9.43572C28.899 8.45609 29.642 6.98566 29.642 5.34032C29.642 2.39137 27.2548 0 24.3101 0C21.3654 0 18.9779 2.39137 18.9779 5.34032C18.9779 6.98566 19.7212 8.45609 20.8889 9.43572C20.0908 9.7122 19.3799 10.0821 18.7771 10.525C17.4724 11.4842 16.6788 12.7851 16.624 14.2177C16.6043 14.7204 16.6599 15.1436 16.7769 15.5043C18.7713 15.9982 21.4125 16.2986 24.3101 16.2986C27.2151 16.2986 29.8621 15.9966 31.8584 15.5008C31.9658 15.1406 32.0152 14.7181 31.9966 14.2177Z" fill="#0D65D9"/>
<path d="M15.3764 14.2177C15.3235 12.7851 14.5292 11.4846 13.2233 10.525C12.6209 10.0821 11.9093 9.7122 11.1115 9.43572C12.2788 8.45609 13.0221 6.98566 13.0221 5.34032C13.0221 2.39137 10.6346 0 7.69029 0C4.7452 0 2.35808 2.39137 2.35808 5.34032C2.35808 6.98566 3.1014 8.45609 4.2687 9.43572C3.47055 9.7122 2.75966 10.0821 2.15728 10.525C0.85213 11.4842 0.0582253 12.7851 0.00377954 14.2177C-0.0155275 14.7204 0.0396906 15.1436 0.156691 15.5043C2.15111 15.9982 4.79269 16.2986 7.69029 16.2986C10.5948 16.2986 13.2422 15.9966 15.2386 15.5008C15.3455 15.1406 15.3953 14.7181 15.3764 14.2177Z" fill="#0D65D9"/>
<path d="M24.1717 17.4157C24.115 15.8928 23.2705 14.5096 21.8827 13.4902C21.2421 13.0191 20.486 12.6261 19.6373 12.3318C20.8787 11.2908 21.6684 9.72768 21.6684 7.97885C21.6684 4.84378 19.1307 2.30182 16.0006 2.30182C12.8698 2.30182 10.3321 4.84378 10.3321 7.97885C10.3321 9.72768 11.1221 11.2908 12.3636 12.3322C11.5148 12.6261 10.7592 13.0191 10.1189 13.4902C8.73153 14.5096 7.88782 15.8928 7.82912 17.4157C7.80904 17.9502 7.86774 18.4004 7.99207 18.7831C10.1124 19.3082 12.92 19.6275 16.0006 19.6275C19.0882 19.6275 21.9024 19.3063 24.0242 18.7796C24.1381 18.3961 24.191 17.9474 24.1717 17.4157Z" fill="#A6C6F1"/>
</svg>
