<svg width="47" height="47" viewBox="0 0 47 47" fill="none" xmlns="http://www.w3.org/2000/svg">
<g opacity="0.8">
<path fill-rule="evenodd" clip-rule="evenodd" d="M23.5 47C36.4836 47 47 36.4836 47 23.5C47 10.5164 36.4836 0 23.5 0C10.5164 0 0 10.5164 0 23.5C0 36.4836 10.5164 47 23.5 47Z" fill="#0D65D9"/>
<path fill-rule="evenodd" clip-rule="evenodd" d="M25.3124 9.89656C25.3124 9.40567 24.9068 9 24.3966 9H22.6034C22.0745 9 21.6876 9.40567 21.6876 9.89656V21.6876H9.89656C9.40567 21.6876 9 22.0932 9 22.6034V24.3966C9 24.9255 9.40567 25.3124 9.89656 25.3124H21.6876V37.1034C21.6876 37.5943 22.0932 38 22.6034 38H24.3966C24.9255 38 25.3124 37.5943 25.3124 37.1034V25.3124H37.1034C37.5943 25.3124 38 24.9068 38 24.3966V22.6034C38 22.0745 37.5943 21.6876 37.1034 21.6876H25.3124V9.89656Z" fill="#FFEE19"/>
</g>
</svg>
